<?xml version="1.0" encoding="UTF-8"?>
<svg id="Layer_2" data-name="Layer 2" xmlns="http://www.w3.org/2000/svg" viewBox="0 0 491.08 488.94">
  <defs>
    <style>
      .cls-1 {
        fill: #060506;
      }

      .cls-1, .cls-2, .cls-3 {
        stroke-width: 0px;
      }

      .cls-2 {
        fill: #f2f3f3;
      }

      .cls-3 {
        fill: #f04604;
      }
    </style>
  </defs>
  <g id="Layer_1-2" data-name="Layer 1">
    <g>
      <path class="cls-2" d="M226.48,116.42c10.08-1.09,20.25-1.15,30.38-.86,15.12,1.08,29.92,4.95,45,6.13,1.47-.3,2.9-.18,4.28.38-5.18,3.9-10.08,8.16-14.95,12.43-.64-.11-1.91-.33-2.54-.44.07,2.08.14,4.17.24,6.26,4.64,2.19,9.63,4.01,13.35,7.69,3.2,3.2,6.52,6.29,9.79,9.42,1.42-3.08,1.59-8.06,5.51-8.98-.57,2.88-1.38,5.7-2.12,8.54,2.58-3.08,4.16-8.13,8.68-8.69-2.01,4.07-5.17,8.13-4.74,12.89,1.83-3.87,3.37-8.06,6.66-10.99,2.45-2.71,6.12-3.95,8.39-6.84-2.46-.6-4.98-.56-7.47-.37,4.72-10.22,12.68-18.34,19.83-26.87-.94,1.71-1.49,3.6-1.7,5.54,3.83.35,7.68.33,11.52.2l-.66,1.23c-4.52,1.33-9.32,1.12-13.9,2.17-1.87.77-2.8,2.71-3.7,4.38,3.31-.48,6.5-1.49,9.77-2.22-1.2,1.05-2.43,2.08-3.64,3.1,3.65,2.24,9.04,2.49,11.22,6.48-3.14-.35-5.96-2.64-9.19-1.94-4.75.89-9.51,1.62-14.26,2.47-.35.75-.69,1.5-1.03,2.25,2.93-.36,5.98-.45,8.77.68,7.34,2.98,14.22,7.4,19.26,13.6.03,1.28.06,2.56.1,3.85-4.75,1.03-9.74.99-14.26,2.96-4.14,1.56-8.31,3.1-12.21,5.2-1.28.61-2.22,1.68-2.79,2.96,4.3-.81,7.57-4.17,11.87-5.04,5.64-1.34,11.37-2.35,17.15-2.7,1.29.06,3.64-.34,2.76,1.72-4.9,3.06-11.1,2.91-15.99,5.98-1.83,1.08-3.32,2.61-4.77,4.13,5.72-2.42,12-1.58,17.94-.54-2.36,2.27-5.32,3.69-8.02,5.48,5.74-.16,11.03-3.1,16.85-2.95-.22.43-.67,1.28-.89,1.71-5.43,2.26-11.01,4.34-15.8,7.85,4.49-1.11,9.37-.82,13.46,1.47-1.21,2.35-3.31,3.96-5.13,5.8,4.23,4.96,10.83,7.86,13.6,14.09,2.76,2.33,6.71.98,9.98,1.16-.97,1.7-2.74,2.58-3.99,4.01-.18,1.68.44,3.27,1.12,4.77,2.93,6.52,6.11,12.97,8.15,19.84.38,1.86,2.55,2.61,2.96,4.42l-2.32.48c1.51,8.44.66,17.05,1.23,25.56,1.75,7.85,5.16,15.73,11.43,21.05-3.96-.61-7.85-1.55-11.73-2.51.42,2.46.7,4.95,1.34,7.37.94,1.07,2.1,1.91,3.19,2.84-3.76,1.64-5.76,5.33-8.49,8.16-2.88,3.42-6.64,6.02-9.19,9.71,6.29.97,12.57,2.08,18.76,3.59,15.26,3.76,30.53,7.99,44.64,15.05l1.01,1.02-1.24.77c-8.33-2.72-16.38-6.24-24.8-8.68-17.06-4.94-34.35-9.32-52.02-11.33-12.39-.49-24.78-.37-37.16.07-7.85.8-15.76,1.85-23.19,4.63-1.37.34-2.29,1.71-1.72,3.09,3.63,1.07,7.49-.51,11.08-1.29,19.91-3.97,40.3-2.78,60.46-2.4-2.66,2.34-6.31,3.29-8.49,6.27,2.87,1.95,6.54,1.81,9.78,2.73,13.59,2.42,26.87,6.27,40.01,10.41,7.14,2.21,14.03,5.21,20.48,9-.6.37-1.78,1.12-2.38,1.49-20.64-8.36-41.98-15.43-63.96-19.21-4.01-1.08-8.06.24-12.1-.14-10.59-1.14-21.26-.55-31.89-.67-5.94-.16-11.95.72-17.84-.39-.06,1.15-.12,2.3-.17,3.46,17.37-.09,34.75.05,52.11.08-2.52,2.68-6.95,2.59-8.94,6.09,20.19,5.4,40.29,11.54,59.29,20.37,4.99,2.29,9.77,5,14.78,7.25-4.09,5.37-8,10.93-12.6,15.86l-.86.24c-7.39-4.55-15.29-8.21-22.82-12.52-5.29-3.03-10.94-5.32-16.44-7.89-3.41-1.51-6.6-4.81-10.61-3.35,10.12,5.05,19.92,10.83,29.05,17.55,5.56,3.65,10.05,8.65,15.61,12.31l-.39,1.18-1.11.11c-14.56-11.06-29.64-21.71-46.5-29l-.48-1.28-.35-.97c-10.65-3.8-21.4-8.41-32.88-8.55-5.38-.96-10.44-3.17-15.76-4.42-2.49-1.14-5.2-1.39-7.88-.94,0,.52,0,1.56,0,2.08,4.58,1.12,9.34,1.51,13.76,3.26,3.64,1.33,8.54.23,11.38,3.25-2.79.39-5.51-.45-8.28-.56,4.57,2.31,8.67,5.45,13.4,7.44,4.38,1.92,8.05,5.1,12.44,7.01.36-.06,1.09-.2,1.45-.27l.74-.14c1.07,2.63,4.07,3.61,5.95,5.58,5.09,3.92,8.95,9.1,13.87,13.21,6.66,6.42,12.26,13.88,17.34,21.6.61.81,1.32,1.54,2.13,2.21-.03.35-.07,1.07-.1,1.42-24.66,20.13-53.3,35.9-84.28,43.73-21.9,5.37-44.56,6.8-67.04,6.03-12.26-.48-24.3-3.13-36.43-4.77-.17-.21-.52-.62-.69-.83,5.78-2.32,9.96-7.07,14.91-10.65,6.33-4.77,12.54-9.81,19.54-13.58.14-.25.43-.76.57-1.02,24.48-15.59,51.05-27.4,76.96-40.33,5.77-2.56,10.4-7.01,16.19-9.52-5.53-6.3-11.81-12.6-19.86-15.48,3.52,6.93,11.73,10.56,14.32,18.02-3.48-1.05-4.84-4.69-7.25-7.06-3.81-3.76-6.99-8.12-11.08-11.61-1.19.74-2.28,1.68-3.62,2.15-5.81,1.79-11.63,3.53-17.5,5.1-8.45,1.82-16.45,5.34-25.05,6.52-2.17.03-3.25,1.98-4.54,3.39-.3-.77-.91-2.32-1.21-3.09-1.81.28-3.03,1.81-4.59,2.46-.43-.54-1.31-1.61-1.75-2.15-.6.74-1.2,1.49-1.79,2.25-.92-.94-1.51-2.46-2.96-2.64-13.64-3.07-26.71-8.09-40.23-11.6-2.06-.5-4.1-1.11-5.96-2.13-7.2,2.06-12.24,8.23-17.08,13.58,13.32,8.75,27.25,17.03,38.1,28.91,6.18,6.9,12,14.23,16.49,22.36-.2.52-.59,1.57-.79,2.09-2.58-.47-4.77,1.21-6.98,2.25-8.97,5.09-17.18,11.4-25.13,17.94-1.05.99-1.53,2.43-2.53,3.48-4.47-.58-8.78-2.05-13.09-3.32-4.57-1.68-8.59-4.49-12.84-6.81-5.59-3.15-11.28-6.83-14.52-12.56-2.83-4.76-3.93-10.33-3.91-15.81-6.4-.9-8.89-7.68-10.34-13.11-1.05-6.39-.48-12.93.52-19.29-4.61,2.35-7.61,6.82-11.41,10.2-6.07,5.67-11.22,12.18-16.67,18.43l-1-1.72c4.16-5.6,7.69-11.71,12.71-16.62,6.68-6.63,12.97-13.75,20.71-19.18,3.82-2.77,7.09-6.28,11.18-8.68,7.65-4.8,16.19-7.9,23.89-12.58,2.54-1.48,5.44-2.09,8.3-2.6-2-.04-4.21-.39-5.85,1.06-.57-.04-1.7-.13-2.26-.17l.25,1.06c-3.63-.05-7.28,0-10.86-.71,2.11-1.43,4.73-1.4,7.15-1.77,6.39-.69,12.41-3.41,18.89-3.41,6.05.48,11.95,2.3,18.06,2.2,1.39.27,2.55-.41,3.37-1.48-3.81-.28-7.7-.09-11.39-1.22-3.37-.7-7.11-2.29-10.37-.44-1.28-1.74-3.53-2.07-5.53-1.72-3.57.73-7.05,1.85-10.54,2.89-12.4,3.93-25.91,3.88-37.58,10.13-4.43,1.83-8.88,3.65-13.13,5.86-6.7,3.4-13.79,6.17-19.87,10.64-7.49,4.56-15.27,8.7-22.18,14.17-.49-.04-1.48-.11-1.97-.15l.46-1.21c4.22-3.46,8.4-7.04,13.14-9.78,3.96-2.38,8.4-4.14,11.58-7.64,9.1-4.19,18.26-8.29,26.99-13.22,5.28-2.73,11.23-3.81,16.71-6.07,3.01-1.42,7-.94,9.27-3.65-4.36-.1-8.79.2-13.04-1.03.27-1.07.94-1.61,2-1.63,11.64-1.88,23.47-2.42,35.01-4.96,1.4-.32,2.66-.95,3.78-1.89-.62-.62-1.24-1.22-1.87-1.82-14.42,3.76-29.31,5.16-43.82,8.5-6.78,1.59-13.76,2.71-20.1,5.71-1.98.82-3.93,1.68-5.9,2.5-10.64,2.49-20.5,7.35-30.5,11.62-5.07,2.08-9.6,5.26-14.66,7.35-.24-.3-.71-.89-.95-1.19,10.16-7.12,21.59-12.13,32.95-17.01,11.82-4.41,23.96-7.9,36.2-10.94,2.49.05,1.95-2.74,1.29-4.27-3.08-1.49-6.84-2.07-9.17-4.84,8.97,0,17.93-.16,26.9-.25,8.75-.23,17.5.64,26.25.06-.01-1.17-.01-2.33-.01-3.49-3.72.74-7.51.76-11.28.55-10.67-.51-21.36-.02-32.04.22-4.95.08-9.88.99-14.83.48-6-.7-11.76,1.46-17.48,2.9-17.22,4.46-33.82,10.89-50.59,16.76-.36-.37-1.09-1.11-1.45-1.48,14.58-7.35,29.92-13.29,45.82-17.09,7.05-2.1,14.44-2.81,21.38-5.31-1.15-3.11-4.96-3.37-6.99-5.71,18.74-1.13,37.6-.93,56.23,1.57,4.09.37,8.12,1.17,12.06,2.34,4.34.32,8.71.02,12.98-.77,2.47-.61,4.76.81,6.99,1.65.49-.4,1.48-1.2,1.97-1.6-4.08-2.13-9.27-3.27-13.57-1.1-1.45.56-2.86,1.21-4.27,1.85-.17-1.3-.35-2.59-.53-3.88-4.29-.45-8.27-2.23-12.54-2.79-17.92-3-36.21-2.74-54.29-1.58-13.43,1.47-26.41,5.3-39.3,9.19-10.75,3.8-21.85,6.78-32.19,11.67-.14-.46-.42-1.37-.56-1.83,4.13-3.1,9.02-4.95,13.75-6.95,15.27-5.88,31.03-10.76,47.29-12.91-4.03-6.9-10.3-12.04-15.72-17.78-1.57-2.18,2.46-2.57,3.21-4.14.46-1.97.27-4.03.3-6.03-3.83,1.71-7.9,2.95-12.13,2.93,1.4-2.2,3.95-3.31,5.31-5.53,2.73-4.21,4.92-8.77,6.52-13.53,1.73-4.25.78-8.9.85-13.34-.21-4.73.46-9.43.57-14.15-.54-.47-1.61-1.41-2.14-1.88.54-.37,1.62-1.12,2.16-1.5,3.09-7.93,6.72-15.64,9.78-23.58,1.37-2.76-1.89-4.71-2.97-6.95,3.17.03,6.38-.02,9.45-.91l.36-1.13c3.07-5.52,9.07-8.5,13.39-12.92.66-2.9-2.54-2.4-4.35-2.8-.07-.83-.02-1.65.17-2.45,3.07-1.95,6.84-1.88,10.3-2.56-5.22-4.44-11.96-6.44-18.03-9.37,6.02-.7,12.22.3,18.27.81-2.47-1.42-5.34-2.57-5.65-5.86,4.75.85,9.63.86,14.34,1.98.58.74,1.18,1.48,1.78,2.21.23-.36.69-1.1.92-1.47-4.02-2.95-8.5-5.4-13.48-6.22-3.13-.93-6.93-1.59-8.98-4.34,5.68-.49,11.28.93,16.94,1.12,2.83,0,5.24,1.56,7.73,2.66,2.62,1.18,5.25,2.43,8.09,2.94-.65-.89-1.32-1.79-2.08-2.6-7.57-5.63-17.11-6.65-26.21-7.27,3.36-2.28,6.73-4.66,10.52-6.2,2.9-.44,5.77.44,8.55,1.17,2.01.56,4.1.66,6.11,1.21,2.14.71,3.84,2.39,6.11,2.77-1.4-2.96-4.51-4.38-6.3-7.03-2.46.45-4.75,1.78-7.31,1.93-.59-.56-1.17-1.13-1.74-1.71,1.28-.54,2.54-1.1,3.8-1.69.3-.49.89-1.47,1.19-1.96,1.27-.83,1.65,1.14,2.07,1.92,1.98-2.58,4.52.74,6.48,1.64,4.25,2.44,6.4,6.85,9.08,10.7-.87-7.24-7.38-12.61-14-14.76-1.61-.22-3.24-.38-4.84-.65l-2.18-.48c.89-.73,1.85-1.37,2.86-1.92,5.37-.39,9.76,3.65,14.53,5.57,4.11,1.57,5.14,6.1,7.57,9.28.39-3.9-1.95-7.24-2.49-10.97,4.49,1.6,6.34,6.27,8.53,10.08,3.09-4.06,6.43-7.96,10.18-11.44,2.65-2.5,6.07-3.95,8.79-6.35,1.46-1.75.65-4.22.6-6.27-3.77.06-5.01-3.58-6.73-6.22-.72.18-2.17.52-2.89.69-2.77-2.45-5.59-4.85-7.94-7.72,2.93.25,5.86.63,8.75,1.22.55-.17,1.64-.52,2.19-.69,11.9-.49,23.64-2.99,35.41-4.73ZM225.58,126.47c1.01,8.07-4.69,14.25-8.33,20.78-5,8.33-8.14,17.66-9.91,27.19-.63,6.26-.28,12.58-.36,18.87-.09,8.31.61,16.78,3.52,24.63,2.34,2.63,5.27,4.74,7.18,7.76,5.57,7.65,6.91,17.36,7.52,26.57.76,6.62,1.43,13.26,1.44,19.94.25,10.87-6.9,19.77-12.27,28.59-.78,1.7-4.52,2.82-2.8,4.99,1.85,2.99,5.57,1.91,8.47,2.18,2.14,1.8,3.81,4.1,5.22,6.5-.75,3.06-.74,6.97,2.65,8.37,1.5,1.02,2.98,2.1,4.45,3.18,1.67,3.66,4.51,6.71,8.12,8.53l.52.7.42.06c1.07,3.55,1.11,7.28,1.15,10.96-4.59,3.06-9.14,6.38-14.59,7.76-.7-.2-2.09-.59-2.79-.79-3.32,2.3-7.24,3.77-11.24,4.23-2.82-.51-5.27-2.29-8.21-2.43-.49-.94-.07-2.73-1.64-2.72-2.97.59-5.92,2.3-7.26,5.11,1.8-.01,3.59-.23,5.4-.34,4.94,2.26,10.24,6.78,15.93,4.27,6.43-2.98,13.65-3.83,19.87-7.3,2.32-1.06,4.48-2.7,7.06-3.03,5.07,2.13,9.28,6.28,14.88,7.13,5.11.81,10.02,2.52,15.1,3.42,4.39.49,7.61-3.05,11.59-4.01.35-.41,1.05-1.22,1.4-1.63,1.84.73,3.73,1.26,5.64,1.79.26-2.95-3.3-3.76-5.2-5.16-1.29-.86-2.2.41-2.7,1.43-3.59-.6-5.13,3.86-8.8,3.22-4.37-.31-9.08-.71-12.83-3.22-2.41.2-5.03.61-7.14-.85-3.55-2.12-7.85-3.92-9.85-7.75-.51-4.31.51-9.53,4.65-11.76,2.36-1.35,3.84-3.78,4.23-6.44.66-.51,1.33-1.01,2-1.51l.89-.54c3.3-1.58,7.89-6.05,4.68-9.66,1.14-2.34,2.57-4.52,4.07-6.64,1.47-2.51,4.81-2.38,7.03-3.91.75-1.76-1.41-2.96-1.9-4.5-2.77-6.67-5.16-13.59-9.21-19.64-1.18-1.6-1.38-3.62-1.38-5.54.08-5.33-.02-10.68.76-15.96.7-7.53,1.11-15.12,2.6-22.54,1.17-5.57,3.66-11.18,8.42-14.58,2.07-1.76,5.03-3.01,5.79-5.86.97-3.69,2.24-7.31,2.99-11.06,1.17-21.37-2.36-43.59-13.48-62.16-2.75-4.46-4.98-9.32-5.62-14.57-2.36-.22-5.13-1.49-7.24.19-1.88,1.44-3.74,3.21-6.29,3.14-4.36.15-9.49,1.63-13.15-1.53-3.29-2.43-7.29-4.12-11.45-3.86ZM334.11,134.78c3.86-.64,7.78-.72,11.67-1.14l-.53-1.34c-3.61.24-8.88-1.06-11.14,2.48ZM340.47,144.56c0,.48.04,1.44.05,1.92,1.58.06,3.29.14,4.14,1.75-.57,1.78-3.21.89-4.62,1.61,4.31,2.11,9.37,2.44,13.45,5.11,1.65,1.14,3.54,1.78,5.56,1.89-2.36-3.74-5.7-6.76-9.44-9.08-2.77-1.7-5.74-3.55-9.14-3.2ZM331.69,150.85c-1.19,2.91-3.83,4.87-4.89,7.8,3.41-.62,5.34-3.78,7.78-5.91-.03-.91-.07-1.81-.1-2.71-.7.2-2.1.62-2.79.82ZM125.09,242.22c-1.38,2.18.41,4.61,1.66,6.38,10.53,13.9,16.23,30.58,23.82,46.1,2.28,5.11,8.78,5.81,13.66,5.02,6.21-1.22,12.46-2.3,18.73-3.19,3.01-.58,6.29.89,9.08-.74,6.21-2.97,12.11-6.53,18.2-9.71,2.96.37,1.61,5.27,4.96,5.81.71-7.81-1.54-15.44-2.94-23.04-.7.03-2.11.08-2.81.11-3.43-4.91-5.85-10.69-10.74-14.43-10.35-7.73-23.12-11.02-35.51-13.82-8.99-1.33-18.05-2.42-27.15-2.31-3.84.2-8.52.32-10.96,3.82ZM324.04,241.45c-7.8,1.35-15.48,3.62-22.53,7.25-8.46,3.07-15.91,9.34-19.7,17.59-.44,1.07-1.48,1.61-2.41,2.18-4.55,2.03-4.74,7.56-5.08,11.84.11,3.04-.89,6.11-.1,9.12.72-.5,1.85-.9,1.48-2,.59-.6,1.78-1.8,2.38-2.4,7.18,2.5,12.81,7.83,19,12.05,3.36.15,6.63-1.19,10.01-.94,7.08.69,13.89,3,20.91,3.99,5.01.87,10.17-2.22,12.12-6.84,6-13.92,12.18-27.87,20.24-40.75,1.78-3.17,5.77-6.1,4.49-10.13-1.99-3.45-6.4-3.49-9.89-3.71-10.36-.16-20.81.32-30.92,2.75ZM282.63,322.63c2.27.75,4.2-1.3,6.4-1.5,3.69-.28,7.45,1.42,11.07,0l-.17-.47c-4.71-1.68-10.06-2.91-14.93-1.02-1.14.59-4.16,1.16-2.37,3ZM187.53,331.95v2.29c4.1.33,8.34-1.03,12.39.15,2.92,1.02,6.05,1.15,9.08,1.7,1.35.03,1.42-1.51,1.79-2.43-4.12.63-7.92-2.77-11.76.03-2.53-3.6-7.8-2.39-11.5-1.74ZM289.02,333.4c4.89,2.44,10-1,15.14-.41.08.71.23,2.14.31,2.86,12.16,2.3,24.53,3.32,36.66,5.78-1.73,3.31-6.63,1.6-9.55,3.24v.91c2.81.67,5.74.92,8.45,1.99,6.36,2.42,12.93,4.38,18.98,7.49,1.48-.9,3.19-2.24,5.01-1.29,6.62,3.01,13.1-2.51,19.78-2.54-.93-2.29-3.74-2.73-5.76-3.61-12.05-3.92-24.16-8.94-37.07-8.58-9.07-.88-18.06-2.55-27.04-4.1-2.27-.43-4.53-1.04-6.57-2.13-5.91-1.87-12.81-3.3-18.34.39ZM280.35,333.87c-.92.25-1.32,1.96.04,1.85,2.61.1,6.88.01,7.61-3.13-2.64-.6-5.4-.26-7.65,1.28ZM273.88,345.44c1.11,3.01,4.94,1.32,7.27,1.28,5.85-.23,11.73-.85,17.38-2.41l.32-1.63c-8.4-.18-16.56,2.91-24.97,2.76ZM181.05,353.68c-8.71,3.9-17.32,8.02-25.82,12.35.64-.15,1.92-.45,2.56-.59,4.09,2.84,8.39,5.38,12.77,7.75,2.46-2.36,4.62-5,7-7.44,2.97-3.03,6.75-5.45,8.64-9.39-1.48-.23-2.51-.93-3.11-2.11,4.26.54,7.91-1.58,11.71-3.08,0-.44.01-1.32.02-1.75-4.89-1.35-10.15.95-13.77,4.26ZM294.59,350.32c2.14,2.98,6.14,3.12,9.37,4,2.46-.52,4.81.38,7.05,1.31-.98,2.99-4.93-.23-7.11.9,1.52,2.39,4,3.9,6.15,5.66,5.74,4.14,11.64,8.08,16.87,12.88,4.19-2.81,8.18-5.98,12.72-8.24-.21-.3-.63-.89-.84-1.18-8.74-4.97-17.69-10.15-27.68-12.07-5.42-1.56-10.69-4.41-16.53-3.26ZM332.92,395.09c-.98,1.31-2.76,2.69-1.91,4.58,3.15-1.06,5.24-3.79,8.05-5.44,5.88-3.48,12-6.58,17.77-10.25.13-.54.41-1.62.55-2.16-8.61,3.37-17.71,6.67-24.46,13.27ZM347.45,414.64c-.05.41-.14,1.21-.18,1.61,2.27-.83,4.14-2.41,6.18-3.68,5.79-3.85,11.76-7.54,16.87-12.29-.14-.45-.41-1.35-.54-1.79-8.02,4.5-15.73,9.73-22.33,16.15Z"/>
      <path class="cls-2" d="M137.01,122.43c3.23-.35,6.64-.42,9.36-2.47,2.29,2.53,4.36,5.24,6.62,7.8-3.67,1.48-3.81-4.34-7.13-3.79-3.71.08-7.42.62-11.12.05.62-.76,1.37-1.29,2.27-1.59Z"/>
      <path class="cls-2" d="M144.57,129.74c2.8-1.66,6.1-.79,9.17-.79.83,3.34,3.99,5.1,6.17,7.47-.67.4-1.33.8-2,1.2l-1.04-1.8c-5.03,1.74-10.1,3.54-15.32,4.71.23-.7.7-2.08.93-2.77,2.59-.9,5.23-1.65,7.89-2.32.79-1.16,1.57-2.32,2.36-3.48-6.85-2-12.56,2.7-18.22,5.67l.14-1.55c2.7-2.85,6.46-4.53,9.92-6.34Z"/>
      <path class="cls-2" d="M154.74,137.04l1.71.81.2,1c.92.31,1.85.59,2.78.86.51-.75,1.03-1.49,1.55-2.24.47,1.14,1.4,3.41,1.87,4.55-3.45-.7-6.7.5-9.94,1.47-2.74-.08-5.77.1-7.6,2.46-7.05,1.34-11.34,7.44-17.06,11.1,1.2-4.74,5.73-7.45,9.38-10.22,5.26-2.6,10.78-4.66,16.07-7.22.26-.64.78-1.93,1.04-2.57Z"/>
      <g>
        <path class="cls-3" d="M217.64,1.13C227.37-.06,237.18.02,246.96.03c54.84-.86,108.97,19.7,151.51,53.87,23.73,18.91,44.51,41.8,59.91,68,19.73,33.02,30.52,71.11,32.33,109.45,1.28,23.86-.67,47.99-6.94,71.08-9.68,37.44-28.48,72.5-54.26,101.32-12.99,15.03-28.08,28.14-44.09,39.84-14.39,10.16-29.46,19.46-45.63,26.52-29.69,13.16-62.32,19.26-94.75,18.81-22.89.3-45.91-2.34-67.89-8.86-45.86-13.7-86.37-42.31-117.81-78.04-20.13-22.75-35.59-49.55-45.61-78.21-7.49-21.42-11.79-43.89-13.55-66.5-.26-9.03-.21-18.07-.04-27.1.58-12.47,2.68-24.82,5.18-37.04,4.12-19.81,10.45-39.21,19.41-57.37,12.8-26.24,31.21-49.41,52.29-69.47,20.3-18.67,43.55-34.13,68.64-45.58C168.24,10,192.79,3.64,217.64,1.13ZM172.02,43.32c-19.47,6.65-37.66,16.68-54.4,28.56-2.32,2.05-5.54,3.47-6.74,6.49,2.2,1.39,4.93,1.18,7.18,2.4-4.09.31-7.95-1.81-12.06-.95-2.66,2.28-3.62,5.97-6.52,8-4.63,3.96-9.26,7.98-13.32,12.55-21.81,23.58-38.3,52.19-47.34,83.02-8.63,27.35-10.88,56.52-7.76,84.96,2.47,18.11,6.77,36.02,13.6,53,1.58,3.8,2.89,7.75,5.18,11.2.14.46.42,1.37.56,1.83,2.28,3.74,3.7,7.95,6.25,11.56.36.37,1.09,1.11,1.45,1.48,2.77,7.19,6.89,13.91,11.81,19.83.24.3.71.89.95,1.19,3.07,5.82,7.72,10.6,11.41,16.01l-.46,1.21c.49.04,1.48.11,1.97.15,4.84,3.35,7.89,8.56,12.45,12.21,1.39-3.55,2.33-7.27,3.84-10.77,2.42-5.06,2.14-11.16,5.89-15.61,6.08-4.47,13.17-7.24,19.87-10.64,4.25-2.21,8.7-4.03,13.13-5.86,1.42-.36,2.82-.79,4.15-1.39,3.76,1.37,6.86,3.96,9.4,7,.94.86,1.24,1.91.92,3.15-4.09,2.4-7.36,5.91-11.18,8.68-7.74,5.43-14.03,12.55-20.71,19.18-5.02,4.91-8.55,11.02-12.71,16.62-.43.64-.7,1.37-.81,2.18,1.19.04,2.23.45,3.12,1.23,15.6,12.7,33.3,22.63,51.6,30.88,5.26,2.46,10.39,5.65,16.26,6.38,4.31,1.27,8.62,2.74,13.09,3.32,1-1.05,1.48-2.49,2.53-3.48,7.95-6.54,16.16-12.85,25.13-17.94,2.21-1.04,4.4-2.72,6.98-2.25.2-.52.59-1.57.79-2.09.19.36.58,1.07.77,1.43l1.64-.56c-.14.26-.43.77-.57,1.02-7,3.77-13.21,8.81-19.54,13.58-4.95,3.58-9.13,8.33-14.91,10.65.17.21.52.62.69.83,12.13,1.64,24.17,4.29,36.43,4.77,22.48.77,45.14-.66,67.04-6.03,30.98-7.83,59.62-23.6,84.28-43.73.03-.35.07-1.07.1-1.42-.81-.67-1.52-1.4-2.13-2.21-5.08-7.72-10.68-15.18-17.34-21.6-4.92-4.11-8.78-9.29-13.87-13.21-1.88-1.97-4.88-2.95-5.95-5.58l-.74.14c3.38-3.74,8.28-5.28,12.71-7.33l.48,1.28c16.86,7.29,31.94,17.94,46.5,29l1.11-.11.39-1.18c-5.56-3.66-10.05-8.66-15.61-12.31-9.13-6.72-18.93-12.5-29.05-17.55,4.01-1.46,7.2,1.84,10.61,3.35,5.5,2.57,11.15,4.86,16.44,7.89,7.53,4.31,15.43,7.97,22.82,12.52l.86-.24c4.6-4.93,8.51-10.49,12.6-15.86,3.71-4.98,6.19-10.73,9.5-15.97l-.78-.87c.6-.37,1.78-1.12,2.38-1.49l.04.02c1.45-4.32,4.43-8.03,5.53-12.52l1.24-.77-1.01-1.02.78.33c2.57-5.47,5.1-10.96,7.24-16.61,5.33-15.55,9.94-31.49,11.39-47.92,1.4-9.96,1.24-20.04,1.26-30.07-.02-9.09-1.36-18.09-2.98-27.01-6.6-44.78-29.01-86.88-61.9-117.9-2.53-2.21-4.92-4.81-8.25-5.78-1.07-2.36-2.04-4.76-3.27-7.04-12.26.93-23.1,7.27-33.23,13.73-9.83,5.95-19.67,11.89-29.66,17.58-5.5,3.23-10.26,7.51-15.42,11.23-1.38-.56-2.81-.68-4.28-.38,4.03-.19,7.18-2.98,10.28-5.24,5.53-4.53,11.82-7.98,17.86-11.75,10.03-5.65,19.72-11.87,29.51-17.92,6.23-3.5,12.74-6.59,19.64-8.5-.43-1.14-1.17-2.1-2.16-2.79-28.41-22.57-63-37.17-98.89-42.25-15.84-2.93-32.01-2.31-48.03-2.01-19.78,1.32-39.36,5.52-58.05,12.09Z"/>
        <path class="cls-3" d="M112.48,95.92c3.2-2.11,7.33-1.05,10.47.64,5.98,3.38,11.03,8.21,15.31,13.54,2.58,3.29,5.8,6.06,7.9,9.71-3.09.71-6.12,1.69-9.15,2.62-.9.3-1.65.83-2.27,1.59,3.7.57,7.41.03,11.12-.05,3.32-.55,3.46,5.27,7.13,3.79.26.38.51.78.75,1.19-3.07,0-6.37-.87-9.17.79-3.46,1.81-7.22,3.49-9.92,6.34l-.14,1.55c5.66-2.97,11.37-7.67,18.22-5.67-.79,1.16-1.57,2.32-2.36,3.48-2.66.67-5.3,1.42-7.89,2.32-.23.69-.7,2.07-.93,2.77,5.22-1.17,10.29-2.97,15.32-4.71-.11.51-.31,1.52-.42,2.03l-1.71-.81c-.26.64-.78,1.93-1.04,2.57-5.29,2.56-10.81,4.62-16.07,7.22-3.65,2.77-8.18,5.48-9.38,10.22,5.72-3.66,10.01-9.76,17.06-11.1.45-.02,1.36-.05,1.81-.06l2.18.48.53,1.03c-.12.52-.38,1.56-.51,2.08-1.26.59-2.52,1.15-3.8,1.69.57.58,1.15,1.15,1.74,1.71.35.28,1.04.84,1.39,1.12-2.78-.73-5.65-1.61-8.55-1.17-3.79,1.54-7.16,3.92-10.52,6.2,9.1.62,18.64,1.64,26.21,7.27-2.11-1.08-4.33-1.94-6.56-2.73.14.6.41,1.79.55,2.39-2.49-1.1-4.9-2.66-7.73-2.66-5.66-.19-11.26-1.61-16.94-1.12,2.05,2.75,5.85,3.41,8.98,4.34,4.98.82,9.46,3.27,13.48,6.22-.23.37-.69,1.11-.92,1.47-.6-.73-1.2-1.47-1.78-2.21-4.71-1.12-9.59-1.13-14.34-1.98.31,3.29,3.18,4.44,5.65,5.86-6.05-.51-12.25-1.51-18.27-.81,6.07,2.93,12.81,4.93,18.03,9.37-3.46.68-7.23.61-10.3,2.56-.19.8-.24,1.62-.17,2.45,1.81.4,5.01-.1,4.35,2.8-4.32,4.42-10.32,7.4-13.39,12.92-.31-3.93-3.27-7.04-4.25-10.81,1.64-2.51,4.04-5.21,2.08-8.32-2.16-.87-4.53-.99-6.81-1.38.09-.84.19-1.68.28-2.52,1.92.52,3.86.92,5.82,1.23.67-4.73-1.93-8.99-3.28-13.36-5.67-16.96-5.32-35.07-5.33-52.73.1-4.01-.33-8.09.48-12.05,1.18-3.78,3.79-7.1,7.06-9.31Z"/>
        <path class="cls-3" d="M366.97,97.1c3.22-2.01,7.99-3.78,11.27-1.04,3.76,3.72,6.93,8.65,6.63,14.15.15,18.59.21,37.46-4.38,55.61-1.67,5.76-3.91,11.36-5.3,17.22,2.57-.04,5.14-.15,7.72-.21-1.44,3.77-6.03,1.88-8.71,3.54-1.74,2.35,1.03,4.74,3.32,5.06-.45,4.7-3.4,8.57-5.33,12.73.23.47.69,1.4.91,1.87-2.77-6.23-9.37-9.13-13.6-14.09,1.82-1.84,3.92-3.45,5.13-5.8-4.09-2.29-8.97-2.58-13.46-1.47,4.79-3.51,10.37-5.59,15.8-7.85.22-.43.67-1.28.89-1.71-5.82-.15-11.11,2.79-16.85,2.95,2.7-1.79,5.66-3.21,8.02-5.48-5.94-1.04-12.22-1.88-17.94.54,1.45-1.52,2.94-3.05,4.77-4.13,4.89-3.07,11.09-2.92,15.99-5.98.88-2.06-1.47-1.66-2.76-1.72-5.78.35-11.51,1.36-17.15,2.7,1.89-.69,4.13-1.09,5.19-3.03l-2.06-.09c4.52-1.97,9.51-1.93,14.26-2.96-.04-1.29-.07-2.57-.1-3.85-5.04-6.2-11.92-10.62-19.26-13.6-2.79-1.13-5.84-1.04-8.77-.68.34-.75.68-1.5,1.03-2.25,4.75-.85,9.51-1.58,14.26-2.47,3.23-.7,6.05,1.59,9.19,1.94-2.18-3.99-7.57-4.24-11.22-6.48,1.21-1.02,2.44-2.05,3.64-3.1-3.27.73-6.46,1.74-9.77,2.22.9-1.67,1.83-3.61,3.7-4.38,4.58-1.05,9.38-.84,13.9-2.17l.66-1.23c-3.84.13-7.69.15-11.52-.2.21-1.94.76-3.83,1.7-5.54,5.88-7.15,12.42-13.93,20.2-19.02Z"/>
        <path class="cls-3" d="M334.11,134.78c2.26-3.54,7.53-2.24,11.14-2.48l.53,1.34c-3.89.42-7.81.5-11.67,1.14Z"/>
        <path class="cls-3" d="M340.47,144.56c3.4-.35,6.37,1.5,9.14,3.2,3.74,2.32,7.08,5.34,9.44,9.08-2.02-.11-3.91-.75-5.56-1.89-4.08-2.67-9.14-3-13.45-5.11,1.41-.72,4.05.17,4.62-1.61-.85-1.61-2.56-1.69-4.14-1.75,0-.48-.04-1.44-.05-1.92Z"/>
        <path class="cls-3" d="M151.98,240.92c4.6-1.05,9.17.59,13.73,1.02-1.72,4.97-4.94,9.73-4.36,15.24,1.09,6.44,4.13,12.73,9.23,16.95-.55.55-1.11,1.09-1.68,1.63-1.7-2.4-3.86-4.45-5.41-6.95-4.39-7.1-5.7-15.63-10.33-22.62-1.22-1.5-1.49-3.4-1.18-5.27Z"/>
        <path class="cls-3" d="M325.01,242.51c4.83-1.15,9.76-1.98,14.74-2.12-.21,2.07-.3,4.26-1.64,5.98-3.87,5.38-5.03,12.05-8.08,17.85-4.15,8.81-12.07,16.46-21.95,18.06-6.62.83-13.56.29-19.79-2.22-2.53-.96-4.31-3.83-7.18-3.71-3.46,2.4-5.99,6.79-5.41,11.08.37,1.1-.76,1.5-1.48,2-.79-3.01.21-6.08.1-9.12.34-4.28.53-9.81,5.08-11.84,3.87,3.94,7.13,8.91,12.64,10.72,9.79,3.25,21.59,1.62,29.18-5.71,4.49-4.62,7.91-10.68,8.03-17.25.13-4.92-2.46-9.29-4.24-13.72Z"/>
        <path class="cls-3" d="M182.57,251.25c1.24-3.57,5.68-2.23,7.79-.28,1.95,1.3.56,3.63.33,5.43-1.15,5.52-2.46,11-4.49,16.28-.78,0-1.55-.01-2.32,0-1.12-7-4.06-14.49-1.31-21.43Z"/>
        <path class="cls-3" d="M299.63,253.31c-.32-3.4,3.99-4.13,6.47-4.82,3.59,5.25,3.02,11.93,1.26,17.74-.85,2.4-.98,5.36-3.18,7.01-2.09-6.48-3.96-13.13-4.55-19.93Z"/>
        <path class="cls-3" d="M209.45,268.96c.7-.03,2.11-.08,2.81-.11,1.4,7.6,3.65,15.23,2.94,23.04-3.35-.54-2-5.44-4.96-5.81.58-.13,1.76-.39,2.35-.52-.33-3.25-1.08-6.87-3.93-8.87-1.92-.53-3.05,1.36-3.59,2.88-3.42.51-6.76,1.42-10.09,2.31-8.28,1.56-17.53.57-24.29-4.84.05-.61.17-1.84.22-2.45,6.06,6.47,15.91,6.9,24.04,5.03,6.1-1.13,11.67-5.12,14.5-10.66Z"/>
        <path class="cls-3" d="M225.26,314.47c1.13,2.56,4.43,2.31,6.79,2.45,10.25-.41,20.52-.41,30.75.24.21-.42.63-1.25.84-1.67,3.21,3.61-1.38,8.08-4.68,9.66.89-1.18,1.66-2.45,2.32-3.78-3.1-.31-6.93.8-6.91,4.53,1.23-.05,2.47-.1,3.7-.21-.67.5-1.34,1-2,1.51-.39,2.66-1.87,5.09-4.23,6.44-2.92,2.55-6.84,2.48-10.42,1.67l-.42-.06-.52-.7c-2.39-2.78-5.61-4.82-7.4-8.12,1.19-1.47,2.16-3.21,1.53-5.16-2.27.35-4.53.84-6.7,1.57-3.39-1.4-3.4-5.31-2.65-8.37Z"/>
        <path class="cls-3" d="M116.02,349.47c1.97-.82,3.92-1.68,5.9-2.5,4.38-1.52,8.61,1.16,12.27,3.29,1.29.95.73,2.58-.21,3.55-8.73,4.93-17.89,9.03-26.99,13.22,1.38-4.99,3.1-9.89,5.17-14.63.62-1.66,2.42-2.21,3.86-2.93Z"/>
      </g>
      <g>
        <path class="cls-1" d="M172.02,43.32c18.69-6.57,38.27-10.77,58.05-12.09,16.02-.3,32.19-.92,48.03,2.01,35.89,5.08,70.48,19.68,98.89,42.25.99.69,1.73,1.65,2.16,2.79-6.9,1.91-13.41,5-19.64,8.5-9.79,6.05-19.48,12.27-29.51,17.92-6.04,3.77-12.33,7.22-17.86,11.75-3.1,2.26-6.25,5.05-10.28,5.24-15.08-1.18-29.88-5.05-45-6.13-10.13-.29-20.3-.23-30.38.86-11.77,1.74-23.51,4.24-35.41,4.73-.55.17-1.64.52-2.19.69-2.89-.59-5.82-.97-8.75-1.22,2.35,2.87,5.17,5.27,7.94,7.72.72-.17,2.17-.51,2.89-.69,1.72,2.64,2.96,6.28,6.73,6.22.05,2.05.86,4.52-.6,6.27-2.72,2.4-6.14,3.85-8.79,6.35-3.75,3.48-7.09,7.38-10.18,11.44-2.19-3.81-4.04-8.48-8.53-10.08.54,3.73,2.88,7.07,2.49,10.97-2.43-3.18-3.46-7.71-7.57-9.28-4.77-1.92-9.16-5.96-14.53-5.57-1.01.55-1.97,1.19-2.86,1.92-.45.01-1.36.04-1.81.06,1.83-2.36,4.86-2.54,7.6-2.46,3.24-.97,6.49-2.17,9.94-1.47-.47-1.14-1.4-3.41-1.87-4.55-.52.75-1.04,1.49-1.55,2.24-.93-.27-1.86-.55-2.78-.86l-.2-1c.11-.51.31-1.52.42-2.03l1.04,1.8c.67-.4,1.33-.8,2-1.2-2.18-2.37-5.34-4.13-6.17-7.47-.24-.41-.49-.81-.75-1.19-2.26-2.56-4.33-5.27-6.62-7.8-2.72,2.05-6.13,2.12-9.36,2.47,3.03-.93,6.06-1.91,9.15-2.62-2.1-3.65-5.32-6.42-7.9-9.71-4.28-5.33-9.33-10.16-15.31-13.54-3.14-1.69-7.27-2.75-10.47-.64-3.27,2.21-5.88,5.53-7.06,9.31-.81,3.96-.38,8.04-.48,12.05.01,17.66-.34,35.77,5.33,52.73,1.35,4.37,3.95,8.63,3.28,13.36-1.96-.31-3.9-.71-5.82-1.23-.09.84-.19,1.68-.28,2.52,2.28.39,4.65.51,6.81,1.38,1.96,3.11-.44,5.81-2.08,8.32.98,3.77,3.94,6.88,4.25,10.81l-.36,1.13c-3.07.89-6.28.94-9.45.91,1.08,2.24,4.34,4.19,2.97,6.95-3.06,7.94-6.69,15.65-9.78,23.58-.54.38-1.62,1.13-2.16,1.5.53.47,1.6,1.41,2.14,1.88-.11,4.72-.78,9.42-.57,14.15-.07,4.44.88,9.09-.85,13.34-1.6,4.76-3.79,9.32-6.52,13.53-1.36,2.22-3.91,3.33-5.31,5.53,4.23.02,8.3-1.22,12.13-2.93-.03,2,.16,4.06-.3,6.03-.75,1.57-4.78,1.96-3.21,4.14,5.42,5.74,11.69,10.88,15.72,17.78-16.26,2.15-32.02,7.03-47.29,12.91-4.73,2-9.62,3.85-13.75,6.95-2.29-3.45-3.6-7.4-5.18-11.2-6.83-16.98-11.13-34.89-13.6-53-3.12-28.44-.87-57.61,7.76-84.96,9.04-30.83,25.53-59.44,47.34-83.02,4.06-4.57,8.69-8.59,13.32-12.55,2.9-2.03,3.86-5.72,6.52-8,4.11-.86,7.97,1.26,12.06.95-2.25-1.22-4.98-1.01-7.18-2.4,1.2-3.02,4.42-4.44,6.74-6.49,16.74-11.88,34.93-21.91,54.4-28.56Z"/>
        <path class="cls-1" d="M351.22,93.26c10.13-6.46,20.97-12.8,33.23-13.73,1.23,2.28,2.2,4.68,3.27,7.04,3.33.97,5.72,3.57,8.25,5.78,32.89,31.02,55.3,73.12,61.9,117.9,1.62,8.92,2.96,17.92,2.98,27.01-.02,10.03.14,20.11-1.26,30.07-1.45,16.43-6.06,32.37-11.39,47.92-2.14,5.65-4.67,11.14-7.24,16.61l-.78-.33c-14.11-7.06-29.38-11.29-44.64-15.05-6.19-1.51-12.47-2.62-18.76-3.59,2.55-3.69,6.31-6.29,9.19-9.71,2.73-2.83,4.73-6.52,8.49-8.16-1.09-.93-2.25-1.77-3.19-2.84-.64-2.42-.92-4.91-1.34-7.37,3.88.96,7.77,1.9,11.73,2.51-6.27-5.32-9.68-13.2-11.43-21.05-.57-8.51.28-17.12-1.23-25.56l2.32-.48c-.41-1.81-2.58-2.56-2.96-4.42-2.04-6.87-5.22-13.32-8.15-19.84-.68-1.5-1.3-3.09-1.12-4.77,1.25-1.43,3.02-2.31,3.99-4.01-3.27-.18-7.22,1.17-9.98-1.16-.22-.47-.68-1.4-.91-1.87,1.93-4.16,4.88-8.03,5.33-12.73-2.29-.32-5.06-2.71-3.32-5.06,2.68-1.66,7.27.23,8.71-3.54-2.58.06-5.15.17-7.72.21,1.39-5.86,3.63-11.46,5.3-17.22,4.59-18.15,4.53-37.02,4.38-55.61.3-5.5-2.87-10.43-6.63-14.15-3.28-2.74-8.05-.97-11.27,1.04-7.78,5.09-14.32,11.87-20.2,19.02-7.15,8.53-15.11,16.65-19.83,26.87,2.49-.19,5.01-.23,7.47.37-2.27,2.89-5.94,4.13-8.39,6.84-3.29,2.93-4.83,7.12-6.66,10.99-.43-4.76,2.73-8.82,4.74-12.89-4.52.56-6.1,5.61-8.68,8.69.74-2.84,1.55-5.66,2.12-8.54-3.92.92-4.09,5.9-5.51,8.98-3.27-3.13-6.59-6.22-9.79-9.42-3.72-3.68-8.71-5.5-13.35-7.69-.1-2.09-.17-4.18-.24-6.26.63.11,1.9.33,2.54.44,4.87-4.27,9.77-8.53,14.95-12.43,5.16-3.72,9.92-8,15.42-11.23,9.99-5.69,19.83-11.63,29.66-17.58Z"/>
        <path class="cls-1" d="M225.58,126.47c4.16-.26,8.16,1.43,11.45,3.86,3.66,3.16,8.79,1.68,13.15,1.53,2.55.07,4.41-1.7,6.29-3.14,2.11-1.68,4.88-.41,7.24-.19.64,5.25,2.87,10.11,5.62,14.57,11.12,18.57,14.65,40.79,13.48,62.16-.75,3.75-2.02,7.37-2.99,11.06-.76,2.85-3.72,4.1-5.79,5.86-4.76,3.4-7.25,9.01-8.42,14.58-1.49,7.42-1.9,15.01-2.6,22.54-.78,5.28-.68,10.63-.76,15.96,0,1.92.2,3.94,1.38,5.54,4.05,6.05,6.44,12.97,9.21,19.64.49,1.54,2.65,2.74,1.9,4.5-2.22,1.53-5.56,1.4-7.03,3.91-1.5,2.12-2.93,4.3-4.07,6.64-.21.42-.63,1.25-.84,1.67-10.23-.65-20.5-.65-30.75-.24-2.36-.14-5.66.11-6.79-2.45-1.41-2.4-3.08-4.7-5.22-6.5-2.9-.27-6.62.81-8.47-2.18-1.72-2.17,2.02-3.29,2.8-4.99,5.37-8.82,12.52-17.72,12.27-28.59-.01-6.68-.68-13.32-1.44-19.94-.61-9.21-1.95-18.92-7.52-26.57-1.91-3.02-4.84-5.13-7.18-7.76-2.91-7.85-3.61-16.32-3.52-24.63.08-6.29-.27-12.61.36-18.87,1.77-9.53,4.91-18.86,9.91-27.19,3.64-6.53,9.34-12.71,8.33-20.78Z"/>
        <path class="cls-1" d="M149.3,146.37c1.6.27,3.23.43,4.84.65,6.62,2.15,13.13,7.52,14,14.76-2.68-3.85-4.83-8.26-9.08-10.7-1.96-.9-4.5-4.22-6.48-1.64-.42-.78-.8-2.75-2.07-1.92-.3.49-.89,1.47-1.19,1.96.13-.52.39-1.56.51-2.08l-.53-1.03Z"/>
        <path class="cls-1" d="M147.26,152.88c2.56-.15,4.85-1.48,7.31-1.93,1.79,2.65,4.9,4.07,6.3,7.03-2.27-.38-3.97-2.06-6.11-2.77-2.01-.55-4.1-.65-6.11-1.21-.35-.28-1.04-.84-1.39-1.12Z"/>
        <path class="cls-1" d="M331.69,150.85c.69-.2,2.09-.62,2.79-.82.03.9.07,1.8.1,2.71-2.44,2.13-4.37,5.29-7.78,5.91,1.06-2.93,3.7-4.89,4.89-7.8Z"/>
        <path class="cls-1" d="M332.86,166.07c3.9-2.1,8.07-3.64,12.21-5.2l2.06.09c-1.06,1.94-3.3,2.34-5.19,3.03-4.3.87-7.57,4.23-11.87,5.04.57-1.28,1.51-2.35,2.79-2.96Z"/>
        <path class="cls-1" d="M149.23,163.57c2.23.79,4.45,1.65,6.56,2.73.76.81,1.43,1.71,2.08,2.6-2.84-.51-5.47-1.76-8.09-2.94-.14-.6-.41-1.79-.55-2.39Z"/>
        <path class="cls-1" d="M125.09,242.22c2.44-3.5,7.12-3.62,10.96-3.82,9.1-.11,18.16.98,27.15,2.31,12.39,2.8,25.16,6.09,35.51,13.82,4.89,3.74,7.31,9.52,10.74,14.43-2.83,5.54-8.4,9.53-14.5,10.66-8.13,1.87-17.98,1.44-24.04-5.03-.05.61-.17,1.84-.22,2.45,6.76,5.41,16.01,6.4,24.29,4.84,3.33-.89,6.67-1.8,10.09-2.31.54-1.52,1.67-3.41,3.59-2.88,2.85,2,3.6,5.62,3.93,8.87-.59.13-1.77.39-2.35.52-6.09,3.18-11.99,6.74-18.2,9.71-2.79,1.63-6.07.16-9.08.74-6.27.89-12.52,1.97-18.73,3.19-4.88.79-11.38.09-13.66-5.02-7.59-15.52-13.29-32.2-23.82-46.1-1.25-1.77-3.04-4.2-1.66-6.38ZM151.98,240.92c-.31,1.87-.04,3.77,1.18,5.27,4.63,6.99,5.94,15.52,10.33,22.62,1.55,2.5,3.71,4.55,5.41,6.95.57-.54,1.13-1.08,1.68-1.63-5.1-4.22-8.14-10.51-9.23-16.95-.58-5.51,2.64-10.27,4.36-15.24-4.56-.43-9.13-2.07-13.73-1.02ZM182.57,251.25c-2.75,6.94.19,14.43,1.31,21.43.77-.01,1.54,0,2.32,0,2.03-5.28,3.34-10.76,4.49-16.28.23-1.8,1.62-4.13-.33-5.43-2.11-1.95-6.55-3.29-7.79.28Z"/>
        <path class="cls-1" d="M324.04,241.45c10.11-2.43,20.56-2.91,30.92-2.75,3.49.22,7.9.26,9.89,3.71,1.28,4.03-2.71,6.96-4.49,10.13-8.06,12.88-14.24,26.83-20.24,40.75-1.95,4.62-7.11,7.71-12.12,6.84-7.02-.99-13.83-3.3-20.91-3.99-3.38-.25-6.65,1.09-10.01.94-6.19-4.22-11.82-9.55-19-12.05-.6.6-1.79,1.8-2.38,2.4-.58-4.29,1.95-8.68,5.41-11.08,2.87-.12,4.65,2.75,7.18,3.71,6.23,2.51,13.17,3.05,19.79,2.22,9.88-1.6,17.8-9.25,21.95-18.06,3.05-5.8,4.21-12.47,8.08-17.85,1.34-1.72,1.43-3.91,1.64-5.98-4.98.14-9.91.97-14.74,2.12,1.78,4.43,4.37,8.8,4.24,13.72-.12,6.57-3.54,12.63-8.03,17.25-7.59,7.33-19.39,8.96-29.18,5.71-5.51-1.81-8.77-6.78-12.64-10.72.93-.57,1.97-1.11,2.41-2.18,3.79-8.25,11.24-14.52,19.7-17.59,7.05-3.63,14.73-5.9,22.53-7.25ZM299.63,253.31c.59,6.8,2.46,13.45,4.55,19.93,2.2-1.65,2.33-4.61,3.18-7.01,1.76-5.81,2.33-12.49-1.26-17.74-2.48.69-6.79,1.42-6.47,4.82Z"/>
        <path class="cls-1" d="M121.89,313.52c18.08-1.16,36.37-1.42,54.29,1.58,4.27.56,8.25,2.34,12.54,2.79.18,1.29.36,2.58.53,3.88,1.41-.64,2.82-1.29,4.27-1.85,4.3-2.17,9.49-1.03,13.57,1.1-.49.4-1.48,1.2-1.97,1.6-2.23-.84-4.52-2.26-6.99-1.65-4.27.79-8.64,1.09-12.98.77-3.94-1.17-7.97-1.97-12.06-2.34-18.63-2.5-37.49-2.7-56.23-1.57,2.03,2.34,5.84,2.6,6.99,5.71-6.94,2.5-14.33,3.21-21.38,5.31-15.9,3.8-31.24,9.74-45.82,17.09-2.55-3.61-3.97-7.82-6.25-11.56,10.34-4.89,21.44-7.87,32.19-11.67,12.89-3.89,25.87-7.72,39.3-9.19Z"/>
        <path class="cls-1" d="M302.78,318.01c7.43-2.78,15.34-3.83,23.19-4.63,12.38-.44,24.77-.56,37.16-.07,17.67,2.01,34.96,6.39,52.02,11.33,8.42,2.44,16.47,5.96,24.8,8.68-1.1,4.49-4.08,8.2-5.53,12.52l-.04-.02c-6.45-3.79-13.34-6.79-20.48-9-13.14-4.14-26.42-7.99-40.01-10.41-3.24-.92-6.91-.78-9.78-2.73,2.18-2.98,5.83-3.93,8.49-6.27-20.16-.38-40.55-1.57-60.46,2.4-3.59.78-7.45,2.36-11.08,1.29-.57-1.38.35-2.75,1.72-3.09Z"/>
        <path class="cls-1" d="M282.63,322.63c-1.79-1.84,1.23-2.41,2.37-3,4.87-1.89,10.22-.66,14.93,1.02l.17.47c-3.62,1.43-7.38-.27-11.07,0-2.2.2-4.13,2.25-6.4,1.5Z"/>
        <path class="cls-1" d="M254.37,325.9c-.02-3.73,3.81-4.84,6.91-4.53-.66,1.33-1.43,2.6-2.32,3.78l-.89.54c-1.23.11-2.47.16-3.7.21Z"/>
        <path class="cls-1" d="M227.91,322.84c2.17-.73,4.43-1.22,6.7-1.57.63,1.95-.34,3.69-1.53,5.16,1.79,3.3,5.01,5.34,7.4,8.12-3.61-1.82-6.45-4.87-8.12-8.53-1.47-1.08-2.95-2.16-4.45-3.18Z"/>
        <path class="cls-1" d="M141,327.28c10.68-.24,21.37-.73,32.04-.22,3.77.21,7.56.19,11.28-.55,0,1.16,0,2.32.01,3.49-8.75.58-17.5-.29-26.25-.06-8.97.09-17.93.25-26.9.25,2.33,2.77,6.09,3.35,9.17,4.84.66,1.53,1.2,4.32-1.29,4.27-12.24,3.04-24.38,6.53-36.2,10.94-11.36,4.88-22.79,9.89-32.95,17.01-4.92-5.92-9.04-12.64-11.81-19.83,16.77-5.87,33.37-12.3,50.59-16.76,5.72-1.44,11.48-3.6,17.48-2.9,4.95.51,9.88-.4,14.83-.48Z"/>
        <path class="cls-1" d="M306.21,326.9c5.89,1.11,11.9.23,17.84.39,10.63.12,21.3-.47,31.89.67,4.04.38,8.09-.94,12.1.14,21.98,3.78,43.32,10.85,63.96,19.21l.78.87c-3.31,5.24-5.79,10.99-9.5,15.97-5.01-2.25-9.79-4.96-14.78-7.25-19-8.83-39.1-14.97-59.29-20.37,1.99-3.5,6.42-3.41,8.94-6.09-17.36-.03-34.74-.17-52.11-.08.05-1.16.11-2.31.17-3.46Z"/>
        <path class="cls-1" d="M187.53,331.95c3.7-.65,8.97-1.86,11.5,1.74,3.84-2.8,7.64.6,11.76-.03-.37.92-.44,2.46-1.79,2.43-3.03-.55-6.16-.68-9.08-1.7-4.05-1.18-8.29.18-12.39-.15v-2.29Z"/>
        <path class="cls-1" d="M289.02,333.4c5.53-3.69,12.43-2.26,18.34-.39,2.04,1.09,4.3,1.7,6.57,2.13,8.98,1.55,17.97,3.22,27.04,4.1,12.91-.36,25.02,4.66,37.07,8.58,2.02.88,4.83,1.32,5.76,3.61-6.68.03-13.16,5.55-19.78,2.54-1.82-.95-3.53.39-5.01,1.29-6.05-3.11-12.62-5.07-18.98-7.49-2.71-1.07-5.64-1.32-8.45-1.99v-.91c2.92-1.64,7.82.07,9.55-3.24-12.13-2.46-24.5-3.48-36.66-5.78-.08-.72-.23-2.15-.31-2.86-5.14-.59-10.25,2.85-15.14.41Z"/>
        <path class="cls-1" d="M280.35,333.87c2.25-1.54,5.01-1.88,7.65-1.28-.73,3.14-5,3.23-7.61,3.13-1.36.11-.96-1.6-.04-1.85Z"/>
        <path class="cls-1" d="M142.02,341.26c14.51-3.34,29.4-4.74,43.82-8.5.63.6,1.25,1.2,1.87,1.82-1.12.94-2.38,1.57-3.78,1.89-11.54,2.54-23.37,3.08-35.01,4.96-1.06.02-1.73.56-2,1.63,4.25,1.23,8.68.93,13.04,1.03-2.27,2.71-6.26,2.23-9.27,3.65-5.48,2.26-11.43,3.34-16.71,6.07.94-.97,1.5-2.6.21-3.55-3.66-2.13-7.89-4.81-12.27-3.29,6.34-3,13.32-4.12,20.1-5.71Z"/>
        <path class="cls-1" d="M241.42,335.31c3.58.81,7.5.88,10.42-1.67-4.14,2.23-5.16,7.45-4.65,11.76,2,3.83,6.3,5.63,9.85,7.75,2.11,1.46,4.73,1.05,7.14.85,3.75,2.51,8.46,2.91,12.83,3.22,3.67.64,5.21-3.82,8.8-3.22.5-1.02,1.41-2.29,2.7-1.43,1.9,1.4,5.46,2.21,5.2,5.16-1.91-.53-3.8-1.06-5.64-1.79-.35.41-1.05,1.22-1.4,1.63-3.98.96-7.2,4.5-11.59,4.01-5.08-.9-9.99-2.61-15.1-3.42-5.6-.85-9.81-5-14.88-7.13-2.58.33-4.74,1.97-7.06,3.03-6.22,3.47-13.44,4.32-19.87,7.3-5.69,2.51-10.99-2.01-15.93-4.27-1.81.11-3.6.33-5.4.34,1.34-2.81,4.29-4.52,7.26-5.11,1.57-.01,1.15,1.78,1.64,2.72,2.94.14,5.39,1.92,8.21,2.43,4-.46,7.92-1.93,11.24-4.23.7.2,2.09.59,2.79.79,5.45-1.38,10-4.7,14.59-7.76-.04-3.68-.08-7.41-1.15-10.96Z"/>
        <path class="cls-1" d="M176.54,345.01c3.49-1.04,6.97-2.16,10.54-2.89,2-.35,4.25-.02,5.53,1.72,3.26-1.85,7-.26,10.37.44,3.69,1.13,7.58.94,11.39,1.22-.82,1.07-1.98,1.75-3.37,1.48-6.11.1-12.01-1.72-18.06-2.2-6.48,0-12.5,2.72-18.89,3.41-2.42.37-5.04.34-7.15,1.77,3.58.7,7.23.66,10.86.71l-.25-1.06c.56.04,1.69.13,2.26.17,1.64-1.45,3.85-1.1,5.85-1.06-2.86.51-5.76,1.12-8.3,2.6-7.7,4.68-16.24,7.78-23.89,12.58.32-1.24.02-2.29-.92-3.15-2.54-3.04-5.64-5.63-9.4-7-1.33.6-2.73,1.03-4.15,1.39,11.67-6.25,25.18-6.2,37.58-10.13Z"/>
        <path class="cls-1" d="M299.26,342.48c2.68-.45,5.39-.2,7.88.94,5.32,1.25,10.38,3.46,15.76,4.42,11.48.14,22.23,4.75,32.88,8.55l.35.97c-4.43,2.05-9.33,3.59-12.71,7.33-.36.07-1.09.21-1.45.27-4.39-1.91-8.06-5.09-12.44-7.01-4.73-1.99-8.83-5.13-13.4-7.44,2.77.11,5.49.95,8.28.56-2.84-3.02-7.74-1.92-11.38-3.25-4.42-1.75-9.18-2.14-13.76-3.26,0-.52,0-1.56,0-2.08Z"/>
        <path class="cls-1" d="M273.88,345.44c8.41.15,16.57-2.94,24.97-2.76l-.32,1.63c-5.65,1.56-11.53,2.18-17.38,2.41-2.33.04-6.16,1.73-7.27-1.28Z"/>
        <path class="cls-1" d="M85.52,361.09c10-4.27,19.86-9.13,30.5-11.62-1.44.72-3.24,1.27-3.86,2.93-2.07,4.74-3.79,9.64-5.17,14.63-3.18,3.5-7.62,5.26-11.58,7.64-4.74,2.74-8.92,6.32-13.14,9.78-3.69-5.41-8.34-10.19-11.41-16.01,5.06-2.09,9.59-5.27,14.66-7.35Z"/>
        <path class="cls-1" d="M181.05,353.68c3.62-3.31,8.88-5.61,13.77-4.26,0,.43-.02,1.31-.02,1.75-3.8,1.5-7.45,3.62-11.71,3.08.6,1.18,1.63,1.88,3.11,2.11-1.89,3.94-5.67,6.36-8.64,9.39-2.38,2.44-4.54,5.08-7,7.44-4.38-2.37-8.68-4.91-12.77-7.75-.64.14-1.92.44-2.56.59,8.5-4.33,17.11-8.45,25.82-12.35Z"/>
        <path class="cls-1" d="M294.59,350.32c5.84-1.15,11.11,1.7,16.53,3.26,9.99,1.92,18.94,7.1,27.68,12.07.21.29.63.88.84,1.18-4.54,2.26-8.53,5.43-12.72,8.24-5.23-4.8-11.13-8.74-16.87-12.88-2.15-1.76-4.63-3.27-6.15-5.66,2.18-1.13,6.13,2.09,7.11-.9-2.24-.93-4.59-1.83-7.05-1.31-3.23-.88-7.23-1.02-9.37-4Z"/>
        <path class="cls-1" d="M172.93,375.34c4.84-5.35,9.88-11.52,17.08-13.58,1.86,1.02,3.9,1.63,5.96,2.13,13.52,3.51,26.59,8.53,40.23,11.6,1.45.18,2.04,1.7,2.96,2.64.59-.76,1.19-1.51,1.79-2.25.44.54,1.32,1.61,1.75,2.15,1.56-.65,2.78-2.18,4.59-2.46.3.77.91,2.32,1.21,3.09,1.29-1.41,2.37-3.36,4.54-3.39,8.6-1.18,16.6-4.7,25.05-6.52,5.87-1.57,11.69-3.31,17.5-5.1,1.34-.47,2.43-1.41,3.62-2.15,4.09,3.49,7.27,7.85,11.08,11.61,2.41,2.37,3.77,6.01,7.25,7.06-2.59-7.46-10.8-11.09-14.32-18.02,8.05,2.88,14.33,9.18,19.86,15.48-5.79,2.51-10.42,6.96-16.19,9.52-25.91,12.93-52.48,24.74-76.96,40.33l-1.64.56c-.19-.36-.58-1.07-.77-1.43-4.49-8.13-10.31-15.46-16.49-22.36-10.85-11.88-24.78-20.16-38.1-28.91Z"/>
        <path class="cls-1" d="M83.78,385.81c6.91-5.47,14.69-9.61,22.18-14.17-3.75,4.45-3.47,10.55-5.89,15.61-1.51,3.5-2.45,7.22-3.84,10.77-4.56-3.65-7.61-8.86-12.45-12.21Z"/>
        <path class="cls-1" d="M126.5,391.67c3.8-3.38,6.8-7.85,11.41-10.2-1,6.36-1.57,12.9-.52,19.29,1.45,5.43,3.94,12.21,10.34,13.11-.02,5.48,1.08,11.05,3.91,15.81,3.24,5.73,8.93,9.41,14.52,12.56,4.25,2.32,8.27,5.13,12.84,6.81-5.87-.73-11-3.92-16.26-6.38-18.3-8.25-36-18.18-51.6-30.88-.89-.78-1.93-1.19-3.12-1.23.11-.81.38-1.54.81-2.18l1,1.72c5.45-6.25,10.6-12.76,16.67-18.43Z"/>
        <path class="cls-1" d="M332.92,395.09c6.75-6.6,15.85-9.9,24.46-13.27-.14.54-.42,1.62-.55,2.16-5.77,3.67-11.89,6.77-17.77,10.25-2.81,1.65-4.9,4.38-8.05,5.44-.85-1.89.93-3.27,1.91-4.58Z"/>
        <path class="cls-1" d="M347.45,414.64c6.6-6.42,14.31-11.65,22.33-16.15.13.44.4,1.34.54,1.79-5.11,4.75-11.08,8.44-16.87,12.29-2.04,1.27-3.91,2.85-6.18,3.68.04-.4.13-1.2.18-1.61Z"/>
      </g>
    </g>
  </g>
</svg>