<?xml version="1.0" encoding="UTF-8"?>
<svg id="Layer_2" data-name="Layer 2" xmlns="http://www.w3.org/2000/svg" viewBox="0 0 511.09 511.09">
  <defs>
    <style>
      .cls-1 {
        fill: #da3600;
      }

      .cls-1, .cls-2, .cls-3, .cls-4, .cls-5 {
        stroke-width: 0px;
      }

      .cls-2 {
        fill: #000;
      }

      .cls-3 {
        fill: #060506;
      }

      .cls-4 {
        fill: #fff;
      }

      .cls-5 {
        fill: #f04604;
      }
    </style>
  </defs>
  <g id="Layer_1-2" data-name="Layer 1">
    <g>
      <path class="cls-5" d="M255.54,511.09c-68.26,0-132.43-26.58-180.7-74.85S0,323.8,0,255.55,26.58,123.11,74.85,74.85,187.29,0,255.54,0s132.43,26.58,180.7,74.85,74.85,112.44,74.85,180.7-26.58,132.43-74.85,180.7-112.44,74.85-180.7,74.85Z"/>
      <circle class="cls-3" cx="255.47" cy="255.99" r="219.54"/>
      <path class="cls-3" d="M259.19,443.37c-.31,0-.58-.01-.8-.03-.38-.03-.76-.07-1.15-.11-.39.04-.77.08-1.15.11-.22.02-.49.03-.8.03-6.77,0-94.69-17.16-119.73-29.02-24.1-11.42-65.28-41.62-66.78-82.32-.46-12.62,2.65-50.01,14.91-78.89l.21-.5c1.85-4.34,6.19-14.5,3.58-25.46-1.47-6.17-4.52-10.3-5.98-12.29l-.25-.34c-21.04-28.74-21.13-87.36-16.51-112.35,1.73-9.37,3.97-14.17,7.71-16.59l.16-.1c2.41-1.57,5.59-3.26,12.81-3.43.84-.02,2.19-.05,3.97-.05,17.36,0,61.02,3.08,91.52,31.59,2.16,2.02,4.06,3.99,5.74,5.72,5.12,5.31,7.56,7.66,11.46,7.99.29.02.58.04.86.04,2.49,0,4.53-1,8.54-3.07,2.98-1.55,6.7-3.47,11.5-5.08,6.35-2.13,13.17-3.21,20.25-3.21,5.53,0,11.34.66,17.3,1.95,5.96-1.3,11.77-1.95,17.3-1.95,7.09,0,13.9,1.08,20.25,3.21,4.8,1.61,8.51,3.53,11.5,5.08,4,2.08,6.04,3.07,8.53,3.07.28,0,.56-.01.86-.04,3.9-.33,6.33-2.69,11.46-7.99,1.68-1.74,3.58-3.7,5.74-5.72,30.5-28.51,74.17-31.59,91.52-31.59,1.78,0,3.13.03,3.97.05,7.23.17,10.4,1.86,12.81,3.43l.16.1c3.75,2.42,5.98,7.22,7.71,16.59,4.62,24.99,4.53,83.61-16.51,112.35l-.25.34c-1.47,1.99-4.52,6.12-5.98,12.29-2.61,10.96,1.73,21.12,3.58,25.46l.21.5c12.27,28.87,15.38,66.26,14.92,78.89-1.5,40.7-42.68,70.89-66.78,82.32-25.04,11.87-111.78,29.02-118.4,29.02h0Z"/>
      <path class="cls-4" d="M258.37,132.84s-27.69-1.96-35.58.68c-11.23,3.77-15.79,9.44-24.68,8.69-9.51-.8-13.86-8.11-22.54-16.22-33.53-31.34-84.16-30.18-91.76-30.01-5.93.14-7.63,1.44-8.96,2.29-7.73,4.98-13.42,86.32,11.18,119.94,1.49,2.04,5.76,7.53,7.75,15.89,3.41,14.34-2.3,26.95-4.32,31.69-12.01,28.26-15.04,65-14.59,77.09,1.37,37.28,39.97,65.79,63.53,76.96,25.1,11.9,115.51,29.16,118.94,28.86.62-.05.7-.37,1.88-.2.98-.17,1.27.15,1.88.2,3.42.29,92.47-16.96,117.58-28.86,23.55-11.17,62.15-39.68,63.53-76.96.45-12.1-2.58-48.83-14.59-77.09-2.01-4.74-7.73-17.35-4.32-31.69,1.99-8.36,6.25-13.85,7.75-15.89,24.61-33.62,18.91-114.96,11.18-119.94-1.33-.86-3.03-2.16-8.96-2.29-7.6-.17-58.23-1.34-91.76,30.01-8.68,8.11-13.03,15.42-22.54,16.22-8.89.75-13.45-4.93-24.68-8.69-7.89-2.65-35.58-.68-35.58-.68,0,0-.18.03-.34,0"/>
      <path class="cls-1" d="M215.75,269.38s9.92-61.81-17.45-58.28c-27.37,3.53,7.19,39.46,17.45,58.28Z"/>
      <path class="cls-2" d="M261.56,396.72v-23.18l-23.2-1.44c-2.89-.18-5.21,2.34-4.79,5.21l.53,3.59c.24,1.61,1.02,3.09,2.22,4.18l4.66,4.27c2.03,1.86,3.73,4.05,5.03,6.48l2.25,4.22c1.69,3.18,5.5,4.57,8.85,3.24h0c2.69-1.07,4.46-3.67,4.46-6.57Z"/>
      <g>
        <path class="cls-5" d="M141.8,269.78c5.31-1.21,10.59.68,15.85,1.18-1.99,5.74-5.7,11.24-5.03,17.6,1.26,7.44,4.77,14.7,10.66,19.57-.64.64-1.28,1.26-1.94,1.88-1.96-2.77-4.46-5.14-6.25-8.03-5.07-8.2-6.58-18.05-11.93-26.12-1.41-1.73-1.72-3.93-1.36-6.09Z"/>
        <path class="cls-5" d="M177.12,281.71c1.43-4.12,6.56-2.58,9-.32,2.25,1.5.65,4.19.38,6.27-1.33,6.37-2.84,12.7-5.18,18.8-.9,0-1.79-.01-2.68,0-1.29-8.08-4.69-16.73-1.51-24.75Z"/>
        <path class="cls-5" d="M208.16,302.16c.81-.03,2.44-.09,3.24-.13,1.62,8.78,4.21,17.59,3.39,26.61-3.87-.62-2.31-6.28-5.73-6.71.67-.15,2.03-.45,2.71-.6-.38-3.75-1.25-7.93-4.54-10.24-2.22-.61-3.52,1.57-4.15,3.33-3.95.59-7.81,1.64-11.65,2.67-9.56,1.8-20.24.66-28.05-5.59.06-.7.2-2.12.25-2.83,7,7.47,18.37,7.97,27.76,5.81,7.04-1.3,13.48-5.91,16.74-12.31Z"/>
        <path class="cls-3" d="M110.74,271.28c2.82-4.04,8.22-4.18,12.66-4.41,10.51-.13,20.97,1.13,31.35,2.67,14.31,3.23,29.05,7.03,41,15.96,5.65,4.32,8.44,10.99,12.4,16.66-3.27,6.4-9.7,11-16.74,12.31-9.39,2.16-20.76,1.66-27.76-5.81-.06.7-.2,2.12-.25,2.83,7.81,6.25,18.49,7.39,28.05,5.59,3.85-1.03,7.7-2.08,11.65-2.67.62-1.76,1.93-3.94,4.15-3.33,3.29,2.31,4.16,6.49,4.54,10.24-.68.15-2.04.45-2.71.6-7.03,3.67-13.85,7.78-21.02,11.21-3.22,1.88-7.01.18-10.49.85-7.24,1.03-14.46,2.27-21.63,3.68-5.64.91-13.14.1-15.77-5.8-8.76-17.92-15.35-37.18-27.51-53.23-1.44-2.04-3.51-4.85-1.92-7.37ZM141.8,269.78c-.36,2.16-.05,4.35,1.36,6.09,5.35,8.07,6.86,17.92,11.93,26.12,1.79,2.89,4.28,5.25,6.25,8.03.66-.62,1.3-1.25,1.94-1.88-5.89-4.87-9.4-12.14-10.66-19.57-.67-6.36,3.05-11.86,5.03-17.6-5.27-.5-10.54-2.39-15.85-1.18ZM177.12,281.71c-3.18,8.01.22,16.66,1.51,24.75.89-.01,1.78,0,2.68,0,2.34-6.1,3.86-12.43,5.18-18.8.27-2.08,1.87-4.77-.38-6.27-2.44-2.25-7.56-3.8-9,.32Z"/>
      </g>
      <path class="cls-1" d="M293.2,269.38s-9.92-61.81,17.45-58.28c27.37,3.53-7.19,39.46-17.45,58.28Z"/>
      <path class="cls-2" d="M247.54,396.72v-23.18s23.2-1.44,23.2-1.44c2.89-.18,5.21,2.34,4.79,5.21l-.53,3.59c-.24,1.61-1.02,3.09-2.22,4.18l-4.66,4.27c-2.03,1.86-3.73,4.05-5.03,6.48l-2.25,4.22c-1.69,3.18-5.5,4.57-8.85,3.24h0c-2.69-1.07-4.46-3.67-4.46-6.57Z"/>
      <g>
        <path class="cls-5" d="M367.16,269.78c-5.31-1.21-10.59.68-15.85,1.18,1.99,5.74,5.7,11.24,5.03,17.6-1.26,7.44-4.77,14.7-10.66,19.57.64.64,1.28,1.26,1.94,1.88,1.96-2.77,4.46-5.14,6.25-8.03,5.07-8.2,6.58-18.05,11.93-26.12,1.41-1.73,1.72-3.93,1.36-6.09Z"/>
        <path class="cls-5" d="M331.83,281.71c-1.43-4.12-6.56-2.58-9-.32-2.25,1.5-.65,4.19-.38,6.27,1.33,6.37,2.84,12.7,5.18,18.8.9,0,1.79-.01,2.68,0,1.29-8.08,4.69-16.73,1.51-24.75Z"/>
        <path class="cls-5" d="M300.79,302.16c-.81-.03-2.44-.09-3.24-.13-1.62,8.78-4.21,17.59-3.39,26.61,3.87-.62,2.31-6.28,5.73-6.71-.67-.15-2.03-.45-2.71-.6.38-3.75,1.25-7.93,4.54-10.24,2.22-.61,3.52,1.57,4.15,3.33,3.95.59,7.81,1.64,11.65,2.67,9.56,1.8,20.24.66,28.05-5.59-.06-.7-.2-2.12-.25-2.83-7,7.47-18.37,7.97-27.76,5.81-7.04-1.3-13.48-5.91-16.74-12.31Z"/>
        <path class="cls-3" d="M396.29,278.65c-12.16,16.05-18.74,35.31-27.51,53.23-2.63,5.9-10.14,6.71-15.77,5.8-7.17-1.41-14.39-2.66-21.63-3.68-3.48-.67-7.26,1.03-10.49-.85-7.17-3.43-13.98-7.54-21.02-11.21-.67-.15-2.03-.45-2.71-.6.38-3.75,1.25-7.93,4.54-10.24,2.22-.61,3.52,1.57,4.15,3.33,3.95.59,7.81,1.64,11.65,2.67,9.56,1.8,20.24.66,28.05-5.59-.06-.7-.2-2.12-.25-2.83-7,7.47-18.37,7.97-27.76,5.81-7.04-1.3-13.48-5.91-16.74-12.31,3.96-5.67,6.76-12.34,12.4-16.66,11.95-8.93,26.7-12.73,41-15.96,10.38-1.54,20.84-2.79,31.35-2.67,4.43.23,9.84.37,12.66,4.41,1.59,2.52-.47,5.32-1.92,7.37ZM351.3,270.96c1.99,5.74,5.7,11.24,5.03,17.6-1.26,7.44-4.77,14.7-10.66,19.57.64.64,1.28,1.26,1.94,1.88,1.96-2.77,4.46-5.14,6.25-8.03,5.07-8.2,6.58-18.05,11.93-26.12,1.41-1.73,1.72-3.93,1.36-6.09-5.31-1.21-10.59.68-15.85,1.18ZM322.84,281.39c-2.25,1.5-.65,4.19-.38,6.27,1.33,6.37,2.84,12.7,5.18,18.8.9,0,1.79-.01,2.68,0,1.29-8.08,4.69-16.73,1.51-24.75-1.43-4.12-6.56-2.58-9-.32Z"/>
      </g>
      <path class="cls-5" d="M231.92,372.09c1.3,2.96,5.12,2.67,7.84,2.83,11.84-.47,23.7-.47,35.51.28.24-.48.73-1.44.97-1.93,3.71,4.17-1.59,9.33-5.4,11.15,1.03-1.36,1.92-2.83,2.68-4.36-3.58-.36-8,.92-7.98,5.23,1.42-.06,2.85-.12,4.27-.24-.77.58-1.55,1.15-2.31,1.74-.45,3.07-2.16,5.88-4.88,7.44-3.37,2.94-7.9,2.86-12.03,1.93l-.48-.07-.6-.81c-2.76-3.21-6.48-5.57-8.55-9.38,1.37-1.7,2.49-3.71,1.77-5.96-2.62.4-5.23.97-7.74,1.81-3.91-1.62-3.93-6.13-3.06-9.67Z"/>
      <path class="cls-3" d="M420.71,112.57c3.36-1.76,8.25-3.17,11.32-.19,3.47,3.99,6.26,9.15,5.54,14.61-1.25,18.55-2.61,37.37-8.56,55.12-2.1,5.62-4.76,11.03-6.58,16.77,2.57.15,5.14.24,7.71.37-1.72,3.65-6.15,1.42-8.95,2.87-1.91,2.21.67,4.8,2.93,5.3-.8,4.65-4.04,8.29-6.27,12.29.19.49.58,1.45.77,1.93-2.29-6.42-8.66-9.81-12.5-15.07,1.95-1.7,4.17-3.14,5.55-5.4-3.91-2.59-8.75-3.25-13.31-2.48,5.04-3.14,10.76-4.79,16.35-6.64.25-.41.76-1.23,1.02-1.64-5.79-.59-11.29,1.94-17.02,1.67,2.83-1.58,5.89-2.77,8.41-4.86-5.84-1.48-12.04-2.8-17.93-.81,1.56-1.41,3.16-2.82,5.07-3.76,5.11-2.69,11.28-2.08,16.4-4.76,1.03-1.99-1.34-1.77-2.62-1.92-5.79-.09-11.58.49-17.3,1.4,1.94-.55,4.2-.78,5.4-2.63l-2.05-.25c4.66-1.62,9.63-1.21,14.44-1.88.06-1.29.12-2.57.19-3.85-4.56-6.56-11.09-11.49-18.18-15.01-2.7-1.34-5.75-1.48-8.69-1.34.4-.72.79-1.44,1.2-2.17,4.8-.49,9.6-.86,14.41-1.39,3.27-.45,5.91,2.04,9.02,2.63-1.87-4.14-7.23-4.8-10.7-7.31,1.28-.93,2.59-1.86,3.86-2.82-3.32.48-6.57,1.25-9.91,1.48,1.02-1.6,2.1-3.46,4.02-4.09,4.65-.7,9.42-.13,14.02-1.12l.75-1.18c-3.84-.16-7.68-.43-11.47-1.07.36-1.92,1.05-3.76,2.11-5.4,6.4-6.69,13.43-12.95,21.58-17.44Z"/>
      <path class="cls-3" d="M93.61,112.57c-3.36-1.76-8.25-3.17-11.32-.19-3.47,3.99-6.26,9.15-5.54,14.61,1.25,18.55,2.61,37.37,8.56,55.12,2.1,5.62,4.76,11.03,6.58,16.77-2.57.15-5.14.24-7.71.37,1.72,3.65,6.15,1.42,8.95,2.87,1.91,2.21-.67,4.8-2.93,5.3.8,4.65,4.04,8.29,6.27,12.29-.19.49-.58,1.45-.77,1.93,2.29-6.42,8.66-9.81,12.5-15.07-1.95-1.7-4.17-3.14-5.55-5.4,3.91-2.59,8.75-3.25,13.31-2.48-5.04-3.14-10.76-4.79-16.35-6.64-.25-.41-.76-1.23-1.02-1.64,5.79-.59,11.29,1.94,17.02,1.67-2.83-1.58-5.89-2.77-8.41-4.86,5.84-1.48,12.04-2.8,17.93-.81-1.56-1.41-3.16-2.82-5.07-3.76-5.11-2.69-11.28-2.08-16.4-4.76-1.03-1.99,1.34-1.77,2.62-1.92,5.79-.09,11.58.49,17.3,1.4-1.94-.55-4.2-.78-5.4-2.63l2.05-.25c-4.66-1.62-9.63-1.21-14.44-1.88-.06-1.29-.12-2.57-.19-3.85,4.56-6.56,11.09-11.49,18.18-15.01,2.7-1.34,5.75-1.48,8.69-1.34-.4-.72-.79-1.44-1.2-2.17-4.8-.49-9.6-.86-14.41-1.39-3.27-.45-5.91,2.04-9.02,2.63,1.87-4.14,7.23-4.8,10.7-7.31-1.28-.93-2.59-1.86-3.86-2.82,3.32.48,6.57,1.25,9.91,1.48-1.02-1.6-2.1-3.46-4.02-4.09-4.65-.7-9.42-.13-14.02-1.12l-.75-1.18c3.84-.16,7.68-.43,11.47-1.07-.36-1.92-1.05-3.76-2.11-5.4-6.4-6.69-13.43-12.95-21.58-17.44Z"/>
      <g>
        <path class="cls-3" d="M206.89,374.39c-4.61,1.45-9.52,1.92-14.35,1.93-14.41.1-28.51-3.29-42.61-5.3-18.76-2.66-37.94-3.09-56.52,1.14,0,0-.1-.39-.1-.39,23.09-6.97,47.63-5.39,71.25-2.37,14.12,1.56,27.96,5.42,42.24,4.61,0,0,.08.39.08.39h0Z"/>
        <path class="cls-3" d="M195.97,390.42c-11.04,5.42-23.36,8.68-35.72,8.3-4.13-.14-8.22-.55-12.25-1-13.4-1.84-22.56-.7-33.94,7.07-3.33,2.24-6.51,4.74-9.63,7.31,0,0-.27-.3-.27-.3,14.23-13.64,24.02-19.2,44.1-17.28,8.08.56,15.95.23,23.83-.57,7.9-.73,15.74-2.41,23.75-3.93,0,0,.13.38.13.38h0Z"/>
        <path class="cls-3" d="M196.04,403.94c-11.76,13.58-28.76,13.2-44.86,14.88-11.72,1.31-22.99,5.74-31.9,13.58-2.98,2.6-5.71,5.48-8.32,8.48,0,0-.32-.25-.32-.25,17.92-24.58,36.29-24.27,63.54-28.59,7.75-1.3,14.98-4,21.59-8.4,0,0,.26.3.26.3h0Z"/>
      </g>
      <g>
        <path class="cls-3" d="M303.21,374.39c4.61,1.45,9.52,1.92,14.35,1.93,14.41.1,28.51-3.29,42.61-5.3,18.76-2.66,37.94-3.09,56.52,1.14,0,0,.1-.39.1-.39-23.09-6.97-47.63-5.39-71.25-2.37-14.12,1.56-27.96,5.42-42.24,4.61,0,0-.08.39-.08.39h0Z"/>
        <path class="cls-3" d="M314.12,390.42c11.04,5.42,23.36,8.68,35.72,8.3,4.13-.14,8.22-.55,12.25-1,13.4-1.84,22.56-.7,33.94,7.07,3.33,2.24,6.51,4.74,9.63,7.31,0,0,.27-.3.27-.3-14.23-13.64-24.02-19.2-44.1-17.28-8.08.56-15.95.23-23.83-.57-7.9-.73-15.74-2.41-23.75-3.93,0,0-.13.38-.13.38h0Z"/>
        <path class="cls-3" d="M314.05,403.94c11.76,13.58,28.76,13.2,44.86,14.88,11.72,1.31,22.99,5.74,31.9,13.58,2.98,2.6,5.71,5.48,8.32,8.48,0,0,.32-.25.32-.25-17.92-24.58-36.29-24.27-63.54-28.59-7.75-1.3-14.98-4-21.59-8.4,0,0-.26.3-.26.3h0Z"/>
      </g>
      <path class="cls-3" d="M250.9,401.1c3.58.81,7.5.88,10.42-1.67-4.14,2.23-5.16,7.45-4.65,11.76,2,3.83,6.3,5.63,9.85,7.75,2.11,1.46,4.73,1.05,7.14.85,3.75,2.51,8.46,2.91,12.83,3.22,3.67.64,5.21-3.82,8.8-3.22.5-1.02,1.41-2.29,2.7-1.43,1.9,1.4,5.46,2.21,5.2,5.16-1.91-.53-3.8-1.06-5.64-1.79-.35.41-1.05,1.22-1.4,1.63-3.98.96-7.2,4.5-11.59,4.01-5.08-.9-9.99-2.61-15.1-3.42-5.6-.85-9.81-5-14.88-7.13-2.58.33-4.74,1.97-7.06,3.03-6.22,3.47-13.44,4.32-19.87,7.3-5.69,2.51-10.99-2.01-15.93-4.27-1.81.11-3.6.33-5.4.34,1.34-2.81,4.29-4.52,7.26-5.11,1.57-.01,1.15,1.78,1.64,2.72,2.94.14,5.39,1.92,8.21,2.43,4-.46,7.92-1.93,11.24-4.23.7.2,2.09.59,2.79.79,5.45-1.38,10-4.7,14.59-7.76-.04-3.68-.08-7.41-1.15-10.96Z"/>
    </g>
  </g>
</svg>